<?xml version="1.0" encoding="UTF-8"?>
<!DOCTYPE svg PUBLIC "-//W3C//DTD SVG 1.0//EN" "http://www.w3.org/TR/2001/REC-SVG-20010904/DTD/svg10.dtd">
<!-- Creator: CorelDRAW X7 -->
<svg xmlns="http://www.w3.org/2000/svg" xml:space="preserve" width="3588px" height="630px" version="1.0" style="shape-rendering:geometricPrecision; text-rendering:geometricPrecision; image-rendering:optimizeQuality; fill-rule:evenodd; clip-rule:evenodd"
viewBox="0 0 2359 415"
 xmlns:xlink="http://www.w3.org/1999/xlink">
 <defs>
  <style type="text/css">
   <![CDATA[
    .fil0 {fill:white;fill-rule:nonzero}
   ]]>
  </style>
 </defs>
 <g id="Слой_x0020_1">
  <metadata id="CorelCorpID_0Corel-Layer"/>
  <path class="fil0" d="M0 409l0 -409 89 0c44,0 78,15 102,45 24,30 36,72 36,126l0 68c0,54 -12,96 -37,126 -24,29 -60,44 -106,44l-84 0zm47 -365l0 321 38 0c33,0 57,-11 72,-32 16,-20 23,-51 24,-91l0 -73c0,-43 -8,-74 -23,-95 -15,-20 -38,-30 -69,-30l-42 0z"/>
  <path id="1" class="fil0" d="M409 152c-6,-2 -13,-3 -21,-3 -23,0 -39,14 -49,42l0 218 -45 0 0 -304 44 0 1 31c12,-24 29,-37 52,-37 7,0 13,2 18,4l0 49z"/>
  <path id="2" class="fil0" d="M549 415c-35,0 -62,-12 -80,-34 -18,-23 -28,-56 -28,-100l0 -36c0,-46 9,-81 27,-107 18,-26 43,-39 76,-39 32,0 56,12 73,34 16,23 24,58 24,106l0 33 -155 0 0 7c0,32 6,56 17,71 11,15 27,22 48,22 14,0 25,-3 36,-8 10,-6 19,-14 28,-26l24 31c-20,30 -50,46 -90,46zm-5 -273c-19,0 -33,7 -42,21 -9,14 -15,37 -16,66l110 0 0 -6c-2,-29 -6,-50 -15,-62 -8,-13 -21,-19 -37,-19z"/>
  <path id="3" class="fil0" d="M839 409c-3,-7 -5,-18 -6,-33 -16,26 -37,39 -62,39 -25,0 -44,-8 -59,-24 -14,-15 -21,-37 -21,-65 0,-31 10,-55 29,-73 19,-19 45,-28 79,-28l33 0 0 -33c0,-18 -3,-31 -11,-38 -7,-8 -18,-12 -33,-12 -14,0 -25,5 -34,13 -8,9 -13,21 -13,34l-45 0c0,-15 4,-30 12,-44 9,-14 20,-25 34,-33 15,-9 30,-13 48,-13 28,0 50,8 65,24 15,15 22,38 22,67l0 153c1,24 4,44 9,61l0 5 -47 0zm-61 -40c11,0 22,-3 32,-10 10,-7 18,-15 22,-25l0 -72 -25 0c-22,0 -39,5 -52,15 -12,11 -18,25 -18,43 0,17 3,30 9,38 6,7 17,11 32,11z"/>
  <path id="4" class="fil0" d="M991 105l1 28c17,-22 39,-34 67,-34 31,0 53,15 65,45 17,-30 42,-45 73,-45 51,0 77,35 78,105l0 205 -45 0 0 -200c0,-22 -3,-38 -11,-49 -7,-11 -19,-16 -36,-16 -14,0 -25,5 -33,17 -9,12 -14,27 -15,44l0 204 -46 0 0 -202c-1,-42 -16,-63 -47,-63 -23,0 -39,12 -49,37l0 228 -45 0 0 -304 43 0z"/>
  <polygon id="5" class="fil0" points="1411,0 1509,334 1606,0 1667,0 1667,409 1620,409 1620,250 1624,90 1526,409 1490,409 1393,91 1397,250 1397,409 1350,409 1350,0 "/>
  <path id="6" class="fil0" d="M1732 243c0,-44 10,-79 29,-105 20,-26 46,-39 78,-39 32,0 58,13 78,38 20,25 30,59 30,103l0 32c0,44 -10,78 -29,104 -20,26 -46,39 -78,39 -32,0 -58,-13 -78,-38 -19,-25 -29,-58 -30,-101l0 -33zm46 28c0,32 5,56 16,74 12,18 27,27 46,27 40,0 60,-32 62,-95l0 -34c0,-31 -6,-56 -17,-74 -12,-18 -27,-27 -46,-27 -19,0 -33,9 -45,27 -11,18 -16,43 -16,74l0 28z"/>
  <path id="7" class="fil0" d="M2065 32l0 73 42 0 0 40 -42 0 0 189c0,12 2,21 6,27 3,6 9,9 18,9 6,0 12,-1 18,-3l0 42c-10,4 -21,6 -32,6 -18,0 -31,-7 -41,-22 -9,-14 -14,-33 -14,-59l0 -189 -42 0 0 -40 42 0 0 -73 45 0z"/>
  <path id="8" class="fil0" d="M2144 243c0,-44 10,-79 30,-105 19,-26 45,-39 77,-39 33,0 59,13 78,38 20,25 30,59 30,103l0 32c0,44 -9,78 -29,104 -19,26 -45,39 -78,39 -32,0 -58,-13 -77,-38 -20,-25 -30,-58 -31,-101l0 -33zm46 28c0,32 5,56 17,74 11,18 26,27 45,27 40,0 61,-32 62,-95l0 -34c0,-31 -6,-56 -17,-74 -11,-18 -27,-27 -46,-27 -18,0 -33,9 -44,27 -12,18 -17,43 -17,74l0 28z"/>
 </g>
</svg>
